<svg xmlns="http://www.w3.org/2000/svg" width="1600" height="980" viewBox="0 0 1600 980" role="img" aria-labelledby="title desc">
<title id="title">Ejemplo 1: cuaderno abierto</title><desc id="desc">Un archivo legible con índice lateral y rutas de lectura.</desc>
<defs><filter id="shadow" x="-10%" y="-20%" width="120%" height="150%"><feDropShadow dx="0" dy="16" stdDeviation="23" flood-color="#16343e" flood-opacity="0.18"/></filter>
<clipPath id="frame"><rect x="64" y="96" width="1472" height="812" rx="16"/></clipPath>
<style>.sans{font-family:'Ubuntu Sans','DejaVu Sans',sans-serif}.mono{font-family:'Ubuntu Sans Mono','DejaVu Sans Mono',monospace}</style></defs>
<rect x="0" y="0" width="1600" height="980" fill="#dce7e6" rx="0"/><text x="66" y="54" class="sans" font-size="22" fill="#15343e" font-weight="700">Ejemplo 1 · Cuaderno abierto</text><text x="1534" y="54" class="sans" font-size="16" fill="#59757a" font-weight="400" text-anchor="end">La lectura organiza el portfolio</text><rect x="64" y="96" width="1472" height="812" rx="16" fill="#f7f9f6" filter="url(#shadow)"/><g clip-path="url(#frame)"><rect x="64" y="96" width="1472" height="76" fill="#183a43" rx="0"/><rect x="92" y="114" width="42" height="42" fill="#87c8c0" rx="10"/><text x="113" y="141" class="sans" font-size="17" fill="#183a43" font-weight="800" text-anchor="middle">JL</text><text x="152" y="136" class="sans" font-size="23" fill="#f3f8f3" font-weight="700">Juan Larrondo</text><text x="152" y="157" class="sans" font-size="14" fill="#b5d3ce" font-weight="400">Un portfolio contado en archivos</text><text x="1004" y="141" class="sans" font-size="16" fill="#e5f0ec" font-weight="400">Archivos</text><text x="1118" y="141" class="sans" font-size="16" fill="#e5f0ec" font-weight="400">Sobre mí</text><text x="1240" y="141" class="sans" font-size="16" fill="#e5f0ec" font-weight="400">Contacto</text><rect x="1413" y="114" width="105" height="40" fill="#31525a" rx="20"/><rect x="1416" y="117" width="49" height="34" fill="#80c8c1" rx="17"/><text x="1440" y="140" class="sans" font-size="15" fill="#17363c" font-weight="700" text-anchor="middle">ES</text><text x="1491" y="140" class="sans" font-size="15" fill="#eaf5f1" font-weight="400" text-anchor="middle">EN</text><rect x="64" y="172" width="276" height="736" fill="#e9f0ed" rx="0"/><text x="94" y="217" class="sans" font-size="17" fill="#1d3e46" font-weight="700">Explorar archivos</text><line x1="94" y1="235" x2="312" y2="235" stroke="#cbdcd7" stroke-width="1"/><text x="94" y="271" class="sans" font-size="18" fill="#1d3e46" font-weight="700">⌄  Juan/</text><rect x="109" y="308" width="15" height="19" fill="none" rx="2" stroke="#658082" stroke-width="1.5"/><text x="137" y="323" class="mono" font-size="16" fill="#658082" font-weight="400">Welcome.md</text><rect x="82" y="351" width="240" height="37" fill="#d4e5e0" rx="9"/><rect x="82" y="351" width="4" height="37" fill="#67b9b4" rx="2"/><rect x="109" y="361" width="15" height="19" fill="none" rx="2" stroke="#658082" stroke-width="1.5"/><text x="137" y="376" class="mono" font-size="16" fill="#1d3e46" font-weight="700">README.md</text><rect x="109" y="414" width="15" height="19" fill="none" rx="2" stroke="#658082" stroke-width="1.5"/><text x="137" y="429" class="mono" font-size="16" fill="#658082" font-weight="400">AGENTS.md</text><rect x="109" y="467" width="15" height="19" fill="none" rx="2" stroke="#658082" stroke-width="1.5"/><text x="137" y="482" class="mono" font-size="16" fill="#658082" font-weight="400">SOUL.md</text><rect x="109" y="520" width="15" height="19" fill="none" rx="2" stroke="#658082" stroke-width="1.5"/><text x="137" y="535" class="mono" font-size="16" fill="#658082" font-weight="400">Experience.md</text><rect x="109" y="573" width="15" height="19" fill="none" rx="2" stroke="#658082" stroke-width="1.5"/><text x="137" y="588" class="mono" font-size="16" fill="#658082" font-weight="400">Contact.md</text><path d="M109 633h13l5 5h16v13h-34z" fill="none" stroke="#658082" stroke-width="1.7" stroke-linecap="round" stroke-linejoin="round"/><text x="155" y="641" class="mono" font-size="16" fill="#658082" font-weight="400">skills/</text><path d="M109 686h13l5 5h16v13h-34z" fill="none" stroke="#658082" stroke-width="1.7" stroke-linecap="round" stroke-linejoin="round"/><text x="155" y="694" class="mono" font-size="16" fill="#658082" font-weight="400">projects/</text><rect x="340" y="172" width="1196" height="58" fill="#eef3f0" rx="0"/><rect x="340" y="172" width="190" height="58" fill="#fbfcf8" rx="0"/><rect x="340" y="227" width="190" height="3" fill="#67b9b4" rx="0"/><text x="365" y="209" class="mono" font-size="15" fill="#1d3d45" font-weight="700">README.md</text><text x="505" y="210" class="sans" font-size="21" fill="#667e80" font-weight="400" text-anchor="middle">×</text><text x="555" y="209" class="mono" font-size="15" fill="#667e80" font-weight="400">Experience.md</text><text x="712" y="210" class="sans" font-size="21" fill="#667e80" font-weight="400" text-anchor="middle">×</text><text x="762" y="209" class="mono" font-size="15" fill="#667e80" font-weight="400">SOUL.md</text><text x="902" y="210" class="sans" font-size="21" fill="#667e80" font-weight="400" text-anchor="middle">×</text><rect x="340" y="230" width="1196" height="678" fill="#fbfcf9" rx="0"/><text x="405" y="272" class="mono" font-size="15" fill="#71908e" font-weight="400">Juan  ›  README.md</text><text x="405" y="345" class="sans" font-size="56" fill="#173b44" font-weight="700">Aquí empieza</text><text x="405" y="406" class="sans" font-size="56" fill="#227680" font-weight="500">mi historia.</text><text x="407" y="465" class="sans" font-size="20" fill="#375960" font-weight="400">Estoy preparando este portfolio como un repositorio</text><text x="407" y="497" class="sans" font-size="20" fill="#375960" font-weight="400">que puedas recorrer. Cada archivo tiene su propia puerta.</text><line x1="405" y1="547" x2="1030" y2="547" stroke="#d3e1dc" stroke-width="1"/><text x="405" y="593" class="sans" font-size="23" fill="#173b44" font-weight="700">Si buscas lo esencial</text><text x="405" y="642" class="mono" font-size="19" fill="#227680" font-weight="700">Experience.md</text><text x="991" y="642" class="sans" font-size="24" fill="#227680" font-weight="400">↗</text><line x1="405" y1="660" x2="1030" y2="660" stroke="#d3e1dc" stroke-width="1"/><text x="405" y="707" class="mono" font-size="19" fill="#227680" font-weight="700">projects/README.md</text><text x="991" y="707" class="sans" font-size="24" fill="#227680" font-weight="400">↗</text><line x1="405" y1="725" x2="1030" y2="725" stroke="#d3e1dc" stroke-width="1"/><text x="405" y="772" class="mono" font-size="19" fill="#227680" font-weight="700">SOUL.md</text><text x="991" y="772" class="sans" font-size="24" fill="#227680" font-weight="400">↗</text><rect x="1105" y="300" width="354" height="480" fill="#edf4f0" rx="16"/><text x="1138" y="344" class="sans" font-size="19" fill="#173b44" font-weight="700">Índice del archivo</text><line x1="1138" y1="364" x2="1425" y2="364" stroke="#c9dbd5" stroke-width="1"/><text x="1138" y="403" class="sans" font-size="17" fill="#227680" font-weight="700">Presentación</text><text x="1138" y="447" class="sans" font-size="17" fill="#537279" font-weight="400">Experiencia</text><text x="1138" y="491" class="sans" font-size="17" fill="#537279" font-weight="400">Proyectos</text><text x="1138" y="535" class="sans" font-size="17" fill="#537279" font-weight="400">Sobre mí</text><line x1="1138" y1="568" x2="1425" y2="568" stroke="#c9dbd5" stroke-width="1"/><text x="1138" y="614" class="sans" font-size="16" fill="#537279" font-weight="400">Una lectura seguida, con</text><text x="1138" y="640" class="sans" font-size="16" fill="#537279" font-weight="400">enlaces para profundizar.</text><text x="1450" y="853" class="sans" font-size="15" fill="#227680" font-weight="700" text-anchor="end">Para agentes ↗</text></g><text x="66" y="950" class="sans" font-size="16" fill="#59757a" font-weight="400">Conserva el árbol y las pestañas; el archivo abierto se lee como una página editorial.</text></svg>