<svg xmlns="http://www.w3.org/2000/svg" width="1600" height="980" viewBox="0 0 1600 980" role="img" aria-labelledby="title desc">
<title id="title">Ejemplo 3: dos archivos abiertos</title><desc id="desc">Vista dividida entre bienvenida y proyectos, con árbol y pestañas.</desc>
<defs><filter id="shadow" x="-10%" y="-20%" width="120%" height="150%"><feDropShadow dx="0" dy="16" stdDeviation="23" flood-color="#16343e" flood-opacity="0.18"/></filter>
<clipPath id="frame"><rect x="64" y="96" width="1472" height="812" rx="16"/></clipPath>
<style>.sans{font-family:'Ubuntu Sans','DejaVu Sans',sans-serif}.mono{font-family:'Ubuntu Sans Mono','DejaVu Sans Mono',monospace}</style></defs>
<rect x="0" y="0" width="1600" height="980" fill="#dce7e6" rx="0"/><text x="66" y="54" class="sans" font-size="22" fill="#15343e" font-weight="700">Ejemplo 3 · Dos archivos abiertos</text><text x="1534" y="54" class="sans" font-size="16" fill="#59757a" font-weight="400" text-anchor="end">Lectura paralela de contenido</text><rect x="64" y="96" width="1472" height="812" rx="16" fill="#f7f9f6" filter="url(#shadow)"/><g clip-path="url(#frame)"><rect x="64" y="96" width="1472" height="76" fill="#2a3941" rx="0"/><text x="97" y="143" class="sans" font-size="25" fill="#9cd3ca" font-weight="800">JL</text><text x="147" y="142" class="sans" font-size="23" fill="#f0f5f0" font-weight="700">Juan Larrondo</text><text x="1288" y="142" class="sans" font-size="16" fill="#d0e1dd" font-weight="400">Explorar</text><rect x="1413" y="114" width="105" height="40" fill="#31525a" rx="20"/><rect x="1416" y="117" width="49" height="34" fill="#80c8c1" rx="17"/><text x="1440" y="140" class="sans" font-size="15" fill="#17363c" font-weight="700" text-anchor="middle">ES</text><text x="1491" y="140" class="sans" font-size="15" fill="#eaf5f1" font-weight="400" text-anchor="middle">EN</text><rect x="64" y="172" width="246" height="736" fill="#e9f0ed" rx="0"/><text x="94" y="217" class="sans" font-size="17" fill="#1d3e46" font-weight="700">Explorar archivos</text><line x1="94" y1="235" x2="282" y2="235" stroke="#cbdcd7" stroke-width="1"/><text x="94" y="271" class="sans" font-size="18" fill="#1d3e46" font-weight="700">⌄  Juan/</text><rect x="82" y="298" width="210" height="37" fill="#d4e5e0" rx="9"/><rect x="82" y="298" width="4" height="37" fill="#67b9b4" rx="2"/><rect x="109" y="308" width="15" height="19" fill="none" rx="2" stroke="#658082" stroke-width="1.5"/><text x="137" y="323" class="mono" font-size="16" fill="#1d3e46" font-weight="700">Welcome.md</text><rect x="109" y="361" width="15" height="19" fill="none" rx="2" stroke="#658082" stroke-width="1.5"/><text x="137" y="376" class="mono" font-size="16" fill="#658082" font-weight="400">README.md</text><rect x="109" y="414" width="15" height="19" fill="none" rx="2" stroke="#658082" stroke-width="1.5"/><text x="137" y="429" class="mono" font-size="16" fill="#658082" font-weight="400">AGENTS.md</text><rect x="109" y="467" width="15" height="19" fill="none" rx="2" stroke="#658082" stroke-width="1.5"/><text x="137" y="482" class="mono" font-size="16" fill="#658082" font-weight="400">SOUL.md</text><rect x="109" y="520" width="15" height="19" fill="none" rx="2" stroke="#658082" stroke-width="1.5"/><text x="137" y="535" class="mono" font-size="16" fill="#658082" font-weight="400">Experience.md</text><rect x="109" y="573" width="15" height="19" fill="none" rx="2" stroke="#658082" stroke-width="1.5"/><text x="137" y="588" class="mono" font-size="16" fill="#658082" font-weight="400">Contact.md</text><path d="M109 633h13l5 5h16v13h-34z" fill="none" stroke="#658082" stroke-width="1.7" stroke-linecap="round" stroke-linejoin="round"/><text x="155" y="641" class="mono" font-size="16" fill="#658082" font-weight="400">skills/</text><path d="M109 686h13l5 5h16v13h-34z" fill="none" stroke="#658082" stroke-width="1.7" stroke-linecap="round" stroke-linejoin="round"/><text x="155" y="694" class="mono" font-size="16" fill="#658082" font-weight="400">projects/</text><rect x="310" y="172" width="1226" height="58" fill="#eef3f0" rx="0"/><rect x="310" y="172" width="190" height="58" fill="#fbfcf8" rx="0"/><rect x="310" y="227" width="190" height="3" fill="#67b9b4" rx="0"/><text x="335" y="209" class="mono" font-size="15" fill="#1d3d45" font-weight="700">Welcome.md</text><text x="475" y="210" class="sans" font-size="21" fill="#667e80" font-weight="400" text-anchor="middle">×</text><text x="525" y="209" class="mono" font-size="15" fill="#667e80" font-weight="400">projects/README.md</text><text x="727" y="210" class="sans" font-size="21" fill="#667e80" font-weight="400" text-anchor="middle">×</text><text x="777" y="209" class="mono" font-size="15" fill="#667e80" font-weight="400">Experience.md</text><text x="934" y="210" class="sans" font-size="21" fill="#667e80" font-weight="400" text-anchor="middle">×</text><rect x="310" y="230" width="756" height="678" fill="#fbfcf9" rx="0"/><rect x="1066" y="230" width="470" height="678" fill="#edf4f0" rx="0"/><line x1="1066" y1="230" x2="1066" y2="908" stroke="#cbded8" stroke-width="2"/><text x="368" y="273" class="mono" font-size="15" fill="#718a89" font-weight="400">Juan  ›  Welcome.md</text><text x="369" y="362" class="sans" font-size="57" fill="#193b44" font-weight="800">Hola, soy Juan.</text><text x="369" y="419" class="sans" font-size="43" fill="#247780" font-weight="500">Pasa y curiosea.</text><text x="371" y="487" class="sans" font-size="19" fill="#3e6065" font-weight="400">Estoy preparando este portfolio como un</text><text x="371" y="518" class="sans" font-size="19" fill="#3e6065" font-weight="400">repositorio que puedas recorrer.</text><line x1="369" y1="574" x2="1003" y2="574" stroke="#cfdfda" stroke-width="1"/><text x="369" y="619" class="sans" font-size="21" fill="#193b44" font-weight="700">Sigue leyendo</text><text x="369" y="667" class="mono" font-size="17" fill="#247780" font-weight="700">Experience.md</text><text x="369" y="710" class="mono" font-size="17" fill="#247780" font-weight="700">SOUL.md</text><text x="369" y="753" class="mono" font-size="17" fill="#247780" font-weight="700">Contact.md</text><text x="1116" y="275" class="sans" font-size="15" fill="#6b898b" font-weight="400">Vista paralela</text><text x="1116" y="320" class="mono" font-size="16" fill="#247780" font-weight="700">projects/README.md</text><line x1="1116" y1="341" x2="1485" y2="341" stroke="#c7dad5" stroke-width="1"/><text x="1116" y="396" class="sans" font-size="35" fill="#193b44" font-weight="700">Proyectos</text><text x="1116" y="439" class="sans" font-size="17" fill="#517078" font-weight="400">Abre uno sin perder de vista</text><text x="1116" y="466" class="sans" font-size="17" fill="#517078" font-weight="400">el archivo principal.</text><rect x="1116" y="508" width="370" height="96" fill="#ffffff" rx="12" stroke="#d6e4e0" stroke-width="1"/><text x="1138" y="549" class="mono" font-size="17" fill="#193b44" font-weight="700">jarvis.md</text><text x="1138" y="576" class="sans" font-size="14" fill="#247780" font-weight="400">Abrir archivo ↗</text><rect x="1116" y="621" width="370" height="96" fill="#ffffff" rx="12" stroke="#d6e4e0" stroke-width="1"/><text x="1138" y="663" class="mono" font-size="16" fill="#193b44" font-weight="700">payroll-extractor.md</text><text x="1138" y="690" class="sans" font-size="14" fill="#247780" font-weight="400">Abrir archivo ↗</text><line x1="1116" y1="790" x2="1485" y2="790" stroke="#c7dad5" stroke-width="1"/><text x="1485" y="840" class="sans" font-size="15" fill="#247780" font-weight="700" text-anchor="end">Para agentes ↗</text></g><text x="66" y="950" class="sans" font-size="16" fill="#59757a" font-weight="400">Aprovecha los paneles divididos del editor para explorar dos partes del perfil a la vez.</text></svg>