<svg xmlns="http://www.w3.org/2000/svg" width="1600" height="980" viewBox="0 0 1600 980" role="img" aria-labelledby="title desc">
<title id="title">Ejemplo 4: cambio mínimo</title><desc id="desc">La interfaz actual sin barra de vistas, con radios suaves e idioma segmentado.</desc>
<defs><filter id="shadow" x="-10%" y="-20%" width="120%" height="150%"><feDropShadow dx="0" dy="16" stdDeviation="23" flood-color="#16343e" flood-opacity="0.18"/></filter>
<clipPath id="frame"><rect x="64" y="96" width="1472" height="812" rx="16"/></clipPath>
<style>.sans{font-family:'Ubuntu Sans','DejaVu Sans',sans-serif}.mono{font-family:'Ubuntu Sans Mono','DejaVu Sans Mono',monospace}</style></defs>
<rect x="0" y="0" width="1600" height="980" fill="#dbe3e6" rx="0"/><text x="66" y="54" class="sans" font-size="22" fill="#15343e" font-weight="700">Ejemplo 4 · Cambio mínimo</text><text x="1534" y="54" class="sans" font-size="16" fill="#59757a" font-weight="400" text-anchor="end">Sin barra de iconos; resto familiar</text><rect x="64" y="96" width="1472" height="812" rx="16" fill="#f7f9f6" filter="url(#shadow)"/><g clip-path="url(#frame)"><rect x="64" y="96" width="1472" height="57" fill="#222629" rx="0"/><rect x="91" y="112" width="27" height="27" fill="#549ccd" rx="7"/><text x="104" y="131" class="sans" font-size="12" fill="#102538" font-weight="800" text-anchor="middle">JL</text><text x="133" y="132" class="sans" font-size="16" fill="#e8e9e8" font-weight="600">juan / portfolio</text><text x="783" y="132" class="sans" font-size="15" fill="#b7c5ca" font-weight="400" text-anchor="middle">Welcome.md — Juan</text><text x="1230" y="132" class="sans" font-size="14" fill="#b7c5ca" font-weight="400">Idioma</text><rect x="1280" y="105" width="105" height="40" fill="#31525a" rx="20"/><rect x="1283" y="108" width="49" height="34" fill="#80c8c1" rx="17"/><text x="1307" y="131" class="sans" font-size="15" fill="#17363c" font-weight="700" text-anchor="middle">ES</text><text x="1358" y="131" class="sans" font-size="15" fill="#eaf5f1" font-weight="400" text-anchor="middle">EN</text><rect x="1410" y="105" width="101" height="40" fill="#333b41" rx="20"/><text x="1460" y="131" class="sans" font-size="14" fill="#e8e9e8" font-weight="400" text-anchor="middle">Tema ▾</text><rect x="64" y="153" width="330" height="755" fill="#202a30" rx="0"/><text x="94" y="198" class="sans" font-size="17" fill="#dcebe9" font-weight="700">EXPLORER</text><line x1="94" y1="216" x2="366" y2="216" stroke="#34464a" stroke-width="1"/><text x="94" y="252" class="sans" font-size="18" fill="#dcebe9" font-weight="700">⌄  Juan/</text><rect x="109" y="281" width="15" height="19" fill="none" rx="2" stroke="#9ab1b4" stroke-width="1.5"/><text x="137" y="296" class="mono" font-size="14.5" fill="#9ab1b4" font-weight="400">README.md</text><rect x="109" y="323" width="15" height="19" fill="none" rx="2" stroke="#9ab1b4" stroke-width="1.5"/><text x="137" y="338" class="mono" font-size="14.5" fill="#9ab1b4" font-weight="400">AGENTS.md</text><rect x="109" y="365" width="15" height="19" fill="none" rx="2" stroke="#9ab1b4" stroke-width="1.5"/><text x="137" y="380" class="mono" font-size="14.5" fill="#9ab1b4" font-weight="400">SOUL.md</text><rect x="82" y="397" width="294" height="37" fill="#34434a" rx="9"/><rect x="82" y="397" width="4" height="37" fill="#67b9b4" rx="2"/><rect x="109" y="407" width="15" height="19" fill="none" rx="2" stroke="#9ab1b4" stroke-width="1.5"/><text x="137" y="422" class="mono" font-size="14.5" fill="#dcebe9" font-weight="700">Welcome.md</text><rect x="109" y="449" width="15" height="19" fill="none" rx="2" stroke="#9ab1b4" stroke-width="1.5"/><text x="137" y="464" class="mono" font-size="14.5" fill="#9ab1b4" font-weight="400">Experience.md</text><rect x="109" y="491" width="15" height="19" fill="none" rx="2" stroke="#9ab1b4" stroke-width="1.5"/><text x="137" y="506" class="mono" font-size="14.5" fill="#9ab1b4" font-weight="400">Contact.md</text><path d="M109 540h13l5 5h16v13h-34z" fill="none" stroke="#9ab1b4" stroke-width="1.7" stroke-linecap="round" stroke-linejoin="round"/><text x="155" y="548" class="mono" font-size="14.5" fill="#9ab1b4" font-weight="400">skills/</text><rect x="109" y="575" width="15" height="19" fill="none" rx="2" stroke="#9ab1b4" stroke-width="1.5"/><text x="137" y="590" class="mono" font-size="14.5" fill="#9ab1b4" font-weight="400">  infrastructure.md</text><rect x="109" y="617" width="15" height="19" fill="none" rx="2" stroke="#9ab1b4" stroke-width="1.5"/><text x="137" y="632" class="mono" font-size="14.5" fill="#9ab1b4" font-weight="400">  ci-cd.md</text><path d="M109 666h13l5 5h16v13h-34z" fill="none" stroke="#9ab1b4" stroke-width="1.7" stroke-linecap="round" stroke-linejoin="round"/><text x="155" y="674" class="mono" font-size="14.5" fill="#9ab1b4" font-weight="400">projects/</text><rect x="109" y="701" width="15" height="19" fill="none" rx="2" stroke="#9ab1b4" stroke-width="1.5"/><text x="137" y="716" class="mono" font-size="14.5" fill="#9ab1b4" font-weight="400">  jarvis.md</text><rect x="109" y="743" width="15" height="19" fill="none" rx="2" stroke="#9ab1b4" stroke-width="1.5"/><text x="137" y="758" class="mono" font-size="14.5" fill="#9ab1b4" font-weight="400">  payroll-extractor.md</text><rect x="394" y="153" width="1142" height="58" fill="#233139" rx="0"/><rect x="394" y="153" width="190" height="58" fill="#2d4047" rx="0"/><rect x="394" y="208" width="190" height="3" fill="#67b9b4" rx="0"/><text x="419" y="190" class="mono" font-size="15" fill="#e9f1ec" font-weight="700">Welcome.md</text><text x="559" y="191" class="sans" font-size="21" fill="#9aafb2" font-weight="400" text-anchor="middle">×</text><text x="609" y="190" class="mono" font-size="15" fill="#9aafb2" font-weight="400">README.md</text><text x="749" y="191" class="sans" font-size="21" fill="#9aafb2" font-weight="400" text-anchor="middle">×</text><text x="799" y="190" class="mono" font-size="15" fill="#9aafb2" font-weight="400">Experience.md</text><text x="956" y="191" class="sans" font-size="21" fill="#9aafb2" font-weight="400" text-anchor="middle">×</text><rect x="394" y="211" width="1142" height="659" fill="#1e2327" rx="0"/><text x="445" y="251" class="mono" font-size="15" fill="#99a9b3" font-weight="400">Juan  ›  Welcome.md</text><rect x="446" y="291" width="1038" height="521" fill="#24303b" rx="20" stroke="#405568" stroke-width="1.5"/><text x="491" y="339" class="mono" font-size="16" fill="#9ac7e0" font-weight="600">Welcome.md</text><line x1="491" y1="355" x2="1437" y2="355" stroke="#415567" stroke-width="1"/><text x="491" y="438" class="sans" font-size="54" fill="#eef5f8" font-weight="700">Hola, soy Juan.</text><text x="491" y="492" class="sans" font-size="44" fill="#9bcfe3" font-weight="500">Pasa y curiosea.</text><text x="493" y="553" class="sans" font-size="19" fill="#d1dce3" font-weight="400">Estoy preparando este portfolio como un repositorio</text><text x="493" y="585" class="sans" font-size="19" fill="#d1dce3" font-weight="400">que puedas recorrer. Abre un archivo para empezar.</text><rect x="493" y="634" width="496" height="66" fill="#2c4150" rx="14"/><text x="517" y="676" class="sans" font-size="17" fill="#cae1ec" font-weight="500">↖  Empieza por la columna de la izquierda.</text><rect x="1242" y="475" width="170" height="205" fill="#344c5d" rx="13" stroke="#627d91" stroke-width="1.5"/><rect x="1208" y="453" width="170" height="205" fill="#3e5869" rx="13" stroke="#87a8bb" stroke-width="1.5"/><text x="1230" y="489" class="mono" font-size="16" fill="#d8e9ef" font-weight="700">README.md</text><line x1="1230" y1="514" x2="1349" y2="514" stroke="#7893a1" stroke-width="5"/><line x1="1230" y1="540" x2="1327" y2="540" stroke="#7893a1" stroke-width="5"/><line x1="1230" y1="566" x2="1341" y2="566" stroke="#7893a1" stroke-width="5"/><rect x="1268" y="617" width="173" height="124" fill="#55768c" rx="15"/><text x="1292" y="679" class="sans" font-size="39" fill="#e4f3f7" font-weight="800">JL</text><text x="1440" y="774" class="sans" font-size="14" fill="#a7d8e8" font-weight="700" text-anchor="end">Para agentes ↗</text><rect x="64" y="870" width="1472" height="38" fill="#263640" rx="0"/><text x="92" y="894" class="sans" font-size="13" fill="#d3e5ee" font-weight="400">Agent · desarrollo</text><text x="1510" y="894" class="mono" font-size="13" fill="#d3e5ee" font-weight="400" text-anchor="end">Welcome.md</text></g><text x="66" y="950" class="sans" font-size="16" fill="#59757a" font-weight="400">Se elimina solo la franja de vistas; Explorer, pestañas, rutas y barra de estado siguen ahí.</text></svg>